<svg height="512" viewBox="0 0 64 64" width="512" xmlns="http://www.w3.org/2000/svg"><g id="plug"><rect fill="#c6c5ca" height="52" rx="2" width="32" x="16" y="9"/><path d="m42 25v10a2.006 2.006 0 0 1 -2 2h-16a2.006 2.006 0 0 1 -2-2v-10a2.006 2.006 0 0 1 2-2h16a2.006 2.006 0 0 1 2 2z" fill="#00ddc2"/><path d="m42 25v10a2.006 2.006 0 0 1 -2 2h-2a2.006 2.006 0 0 0 2-2v-10a2.006 2.006 0 0 0 -2-2h2a2.006 2.006 0 0 1 2 2z" fill="#00ccb3"/><path d="m39 15v8h-4v-8a2.015 2.015 0 0 1 2-2 2.006 2.006 0 0 1 2 2z" fill="#ffde55"/><path d="m39 5v4h-14v-4a2.006 2.006 0 0 1 2-2h10a2.006 2.006 0 0 1 2 2z" fill="#ffde55"/><path d="m48 11v48a2.006 2.006 0 0 1 -2 2h-2a2.006 2.006 0 0 0 2-2v-48a2.006 2.006 0 0 0 -2-2h2a2.006 2.006 0 0 1 2 2z" fill="#acabb1"/><path d="m39 5v4h-2v-4a2.006 2.006 0 0 0 -2-2h2a2.006 2.006 0 0 1 2 2z" fill="#ebbf00"/><path d="m38 45-6 12v-8h-6l6-12v8z" fill="#ffde55"/><path d="m29 15v8h-4v-8a2.006 2.006 0 0 1 2-2 2.015 2.015 0 0 1 2 2z" fill="#ffde55"/><path d="m46 8h-6v-3a3 3 0 0 0 -3-3h-10a3 3 0 0 0 -3 3v3h-6a3 3 0 0 0 -3 3v48a3 3 0 0 0 3 3h28a3 3 0 0 0 3-3v-48a3 3 0 0 0 -3-3zm-20-3a1 1 0 0 1 1-1h10a1 1 0 0 1 1 1v3h-12zm21 54a1 1 0 0 1 -1 1h-28a1 1 0 0 1 -1-1v-48a1 1 0 0 1 1-1h28a1 1 0 0 1 1 1z"/><path d="m40 22v-7a3 3 0 0 0 -6 0v7h-4v-7a3 3 0 0 0 -6 0v7a3 3 0 0 0 -3 3v10a3 3 0 0 0 3 3h6.382l-5.277 10.553a1 1 0 0 0 .895 1.447h5v7a1 1 0 0 0 1.9.447l6-12a1 1 0 0 0 -.9-1.447h-5v-6h7a3 3 0 0 0 3-3v-10a3 3 0 0 0 -3-3zm-3.618 24-3.382 6.764v-3.764a1 1 0 0 0 -1-1h-4.382l3.382-6.764v3.764a1 1 0 0 0 1 1zm-.382-31a1 1 0 0 1 2 0v7h-2zm-10 0a1 1 0 0 1 2 0v7h-2zm15 20a1 1 0 0 1 -1 1h-16a1 1 0 0 1 -1-1v-10a1 1 0 0 1 1-1h16a1 1 0 0 1 1 1z"/></g></svg>