<?xml version="1.0" encoding="iso-8859-1"?>
<!-- Generator: Adobe Illustrator 19.0.0, SVG Export Plug-In . SVG Version: 6.00 Build 0)  -->
<svg version="1.1" id="Capa_1" xmlns="http://www.w3.org/2000/svg" xmlns:xlink="http://www.w3.org/1999/xlink" x="0px" y="0px"
	 viewBox="0 0 463.004 463.004" style="enable-background:new 0 0 463.004 463.004;" xml:space="preserve">
<g>
	<path d="M127.504,316.995c-7.995,0-14.5,6.505-14.5,14.5s6.505,14.5,14.5,14.5s14.5-6.505,14.5-14.5
		S135.499,316.995,127.504,316.995z"/>
	<path d="M415.504,283.995c-9.74,0-18.802,2.951-26.347,8h-9.903l-16.95-22.601c-4.415-5.886-11.442-9.399-18.8-9.399h-17.045
		c0.344-1.447,0.545-2.949,0.545-4.5c0-1.551-0.201-3.053-0.545-4.5h1.045c12.958,0,23.5-10.542,23.5-23.5v-18.519
		c0-16.073-12.046-29.532-28.021-31.307l-96-10.667c-8.892-0.989-17.818,1.868-24.486,7.836s-10.492,14.523-10.492,23.472v29.186
		c0,12.958,10.542,23.5,23.5,23.5h1.045c-0.344,1.447-0.545,2.949-0.545,4.5c0,1.551,0.201,3.053,0.545,4.5h-17.045
		c-5.52,0-10.854,1.978-15.038,5.451L41.623,92.534c-8.246-9.989-23.087-11.406-33.086-3.157c-4.84,3.997-7.833,9.639-8.429,15.889
		c-0.595,6.249,1.279,12.356,5.277,17.194l134.897,163.297c-4.069-1.138-8.352-1.76-12.779-1.76c-26.191,0-47.5,21.309-47.5,47.5
		s21.309,47.5,47.5,47.5c9.74,0,18.802-2.951,26.347-8h235.306c7.545,5.049,16.607,8,26.347,8c26.191,0,47.5-21.309,47.5-47.5
		S441.695,283.995,415.504,283.995z M168.277,307.161c0.06-0.056,0.124-0.109,0.181-0.166h206.368
		c-4.328,7.158-6.822,15.543-6.822,24.5s2.495,17.342,6.822,24.5H168.182c4.328-7.158,6.822-15.543,6.822-24.5
		C175.004,322.606,172.544,314.283,168.277,307.161z M207.004,227.495V198.31c0-4.756,1.952-9.123,5.496-12.295
		c3.07-2.748,6.899-4.209,10.942-4.209c0.624,0,1.252,0.035,1.884,0.105l96,10.667c8.368,0.93,14.678,7.98,14.678,16.399v18.519
		c0,4.687-3.813,8.5-8.5,8.5h-112C210.817,235.995,207.004,232.182,207.004,227.495z M231.004,255.495c0-2.481,2.019-4.5,4.5-4.5h72
		c2.481,0,4.5,2.019,4.5,4.5c0,2.481-2.019,4.5-4.5,4.5h-72C233.022,259.995,231.004,257.977,231.004,255.495z M343.504,274.995
		c2.661,0,5.204,1.271,6.8,3.4l10.2,13.6H198.966c0.105-5.319-1.577-10.635-4.966-14.968c1.523-1.291,3.477-2.032,5.504-2.032
		H343.504z M15.041,106.687c0.215-2.259,1.297-4.299,3.044-5.742c3.62-2.984,8.988-2.474,11.972,1.14l152,184.001
		c1.391,1.683,2.042,3.81,1.924,5.91h-19.088L16.95,112.906C15.503,111.156,14.825,108.947,15.041,106.687z M95.004,331.495
		c0-17.92,14.58-32.5,32.5-32.5s32.5,14.58,32.5,32.5s-14.58,32.5-32.5,32.5S95.004,349.416,95.004,331.495z M415.504,363.995
		c-17.92,0-32.5-14.58-32.5-32.5s14.58-32.5,32.5-32.5s32.5,14.58,32.5,32.5S433.424,363.995,415.504,363.995z"/>
	<path d="M415.504,316.995c-7.995,0-14.5,6.505-14.5,14.5s6.505,14.5,14.5,14.5s14.5-6.505,14.5-14.5
		S423.499,316.995,415.504,316.995z"/>
</g>
<g>
</g>
<g>
</g>
<g>
</g>
<g>
</g>
<g>
</g>
<g>
</g>
<g>
</g>
<g>
</g>
<g>
</g>
<g>
</g>
<g>
</g>
<g>
</g>
<g>
</g>
<g>
</g>
<g>
</g>
</svg>
