<svg width="275" height="250" xmlns="http://www.w3.org/2000/svg">
 <!-- Created with Method Draw - http://github.com/duopixel/Method-Draw/ -->

 <g>
  <title>background</title>
  <rect fill="none" id="canvas_background" height="252" width="277" y="-1" x="-1"/>
  <g display="none" overflow="visible" y="0" x="0" height="100%" width="100%" id="canvasGrid">
   <rect fill="url(#gridpattern)" stroke-width="0" y="1" x="1" height="300" width="300"/>
  </g>
 </g>
 <g>
  <title>Layer 1</title>
  <g stroke="null" transform="rotate(90 137.49998474121097,123.50000000000001) " id="svg_21">
   <g stroke="null" transform="matrix(3.2460449720729896,0,0,3.384215138887946,-54.951999623791664,-36.865120935733515) " id="svg_4">
    <path stroke="null" id="svg_6" fill="#e1462b" d="m84.288147,67.386207l-38,0l0,-8l27,0l11,4l0,4z"/>
    <circle stroke="null" id="svg_7" r="4" fill="#394d5c" cy="67.386207" cx="84.288147"/>
    <circle stroke="null" id="svg_8" r="6" fill="#394d5c" cy="65.386207" cx="48.288147"/>
    <circle stroke="null" id="svg_9" r="2" fill="#fcf05a" cy="65.386207" cx="48.288147"/>
    <path stroke="null" id="svg_10" fill="#50b4f8" d="m30.288147,23.386207l0,5l16,8l0,23l4,0l0,-26l-20,-10z"/>
    <path stroke="null" id="svg_11" fill="#195c85" d="m57.288147,51.386207l16,0l0,8l-16,0l0,-8z"/>
    <path stroke="null" id="svg_12" fill="#50b4f8" d="m54.288147,45.386207l0,6l19,0l0,3l4,0l0,-9l-23,0z"/>
    <path stroke="null" id="svg_13" fill="#f4f4e6" d="m63.288147,62.386207l2,0l0,2l-2,0l0,-2z"/>
    <path stroke="null" id="svg_14" fill="#f4f4e6" d="m67.288147,62.386207l2,0l0,2l-2,0l0,-2z"/>
    <path stroke="null" id="svg_15" fill="#195c85" d="m56.288147,41.386207l8,0l0,4l-8,0l0,-4z"/>
    <path stroke="null" id="svg_16" fill="#cdeef6" d="m57.288147,45.386207l2,0l0,3l-2,0l0,-3z"/>
    <path stroke="null" id="svg_17" fill="#cdeef6" d="m61.288147,45.386207l2,0l0,3l-2,0l0,-3z"/>
    <path stroke="null" id="svg_18" fill="#fcf05a" d="m61.288147,51.386207l6,0l0,4l-6,0l0,-4z"/>
    <path stroke="null" id="svg_19" fill="#fcf05a" d="m46.288147,54.386207l-6,0a6,6 0 0 1 -6,-6l0,-8l12,-4l0,18z"/>
    <path stroke="null" id="svg_20" fill="#f9bb4b" d="m43.288147,51.386207l-3,0a3,3 0 0 1 -3,-3l0,-3l2,0l0,3a1,1 0 0 0 1,1l3,0l0,2z"/>
   </g>
  </g>
 </g>
</svg>