<svg height="512" viewBox="0 0 64 64" width="512" xmlns="http://www.w3.org/2000/svg"><g id="flat"><path d="m57 52h-38v-8h27l11 4z" fill="#e1462b"/><circle cx="57" cy="52" fill="#394d5c" r="4"/><circle cx="21" cy="50" fill="#394d5c" r="6"/><circle cx="21" cy="50" fill="#fcf05a" r="2"/><path d="m3 8v5l16 8v23h4v-26z" fill="#50b4f8"/><path d="m30 36h16v8h-16z" fill="#195c85"/><path d="m27 30v6h19v3h4v-9z" fill="#50b4f8"/><path d="m36 47h2v2h-2z" fill="#f4f4e6"/><path d="m40 47h2v2h-2z" fill="#f4f4e6"/><path d="m29 26h8v4h-8z" fill="#195c85"/><path d="m30 30h2v3h-2z" fill="#cdeef6"/><path d="m34 30h2v3h-2z" fill="#cdeef6"/><path d="m34 36h6v4h-6z" fill="#fcf05a"/><path d="m19 39h-6a6 6 0 0 1 -6-6v-8l12-4z" fill="#fcf05a"/><path d="m16 36h-3a3 3 0 0 1 -3-3v-3h2v3a1 1 0 0 0 1 1h3z" fill="#f9bb4b"/></g></svg>